<svg width="37" height="38" viewBox="0 0 37 38" fill="none" xmlns="http://www.w3.org/2000/svg">
<path d="M14.8676 30.5625C15.4149 30.5625 15.8586 30.1188 15.8586 29.5714C15.8586 29.024 15.4149 28.5803 14.8676 28.5803C14.3202 28.5803 13.8765 29.024 13.8765 29.5714C13.8765 30.1188 14.3202 30.5625 14.8676 30.5625Z" fill="white" stroke="white" stroke-width="1.5" stroke-linecap="round" stroke-linejoin="round"/>
<path d="M25.767 30.5625C26.3143 30.5625 26.7581 30.1188 26.7581 29.5714C26.7581 29.024 26.3143 28.5803 25.767 28.5803C25.2196 28.5803 24.7759 29.024 24.7759 29.5714C24.7759 30.1188 25.2196 30.5625 25.767 30.5625Z" fill="white" stroke="white" stroke-width="1.5" stroke-linecap="round" stroke-linejoin="round"/>
<path fill-rule="evenodd" clip-rule="evenodd" d="M6.9375 9C6.52329 9 6.1875 9.33579 6.1875 9.75C6.1875 10.1642 6.52329 10.5 6.9375 10.5H10.2871L11.1513 14.8179C11.1549 14.8419 11.1597 14.8655 11.1655 14.8886L12.8224 23.1668L12.8224 23.1672C12.9474 23.796 13.2895 24.3608 13.7889 24.7628C14.2864 25.1633 14.9084 25.3768 15.5468 25.3663H25.1669C25.8053 25.3768 26.4273 25.1633 26.9248 24.7628C27.4243 24.3607 27.7664 23.7957 27.8914 23.1668L27.8914 23.1668L27.8925 23.1612L29.4782 14.8459C29.5201 14.6264 29.4618 14.3996 29.3193 14.2274C29.1769 14.0551 28.965 13.9554 28.7415 13.9554H12.5085L11.6373 9.60281C11.5671 9.25229 11.2593 9 10.9019 9H6.9375Z" fill="white"/>
</svg>
